<?xml version="1.0" encoding="UTF-8"?>
<svg id="Livello_1" data-name="Livello 1" xmlns="http://www.w3.org/2000/svg" viewBox="0 0 460.44 89.78">
  <defs>
    <style>
      .cls-1 {
        fill: #fab511;
      }
    </style>
  </defs>
  <g>
    <path class="cls-1" d="M31.21,46.95c0-11.3,8.63-20.59,19.66-21.63v-8.35h-30.36v59.96h30.36v-8.35c-11.03-1.04-19.66-10.32-19.66-21.63Z"/>
    <path class="cls-1" d="M52.94,25.22c-.7,0-1.38.04-2.06.1v43.26c.68.06,1.37.1,2.06.1,12,0,21.73-9.73,21.73-21.73s-9.73-21.73-21.73-21.73Z"/>
  </g>
  <g>
    <path class="cls-1" d="M112.95,31.74c2.27,2.19,3.53,4.68,3.78,7.47h-4.34c-.48-2.12-1.45-3.79-2.89-5.03-1.44-1.24-3.47-1.86-6.07-1.86-3.18,0-5.74,1.14-7.7,3.41-1.95,2.27-2.93,5.76-2.93,10.46,0,3.85.88,6.97,2.65,9.37,1.76,2.39,4.4,3.59,7.9,3.59,3.22,0,5.67-1.26,7.36-3.78.89-1.33,1.56-3.07,2-5.23h4.34c-.38,3.46-1.65,6.36-3.8,8.7-2.58,2.82-6.06,4.23-10.43,4.23-3.77,0-6.94-1.16-9.5-3.47-3.37-3.06-5.06-7.78-5.06-14.16,0-4.85,1.27-8.82,3.8-11.93,2.74-3.37,6.52-5.06,11.34-5.06,4.11,0,7.3,1.1,9.57,3.29Z"/>
    <path class="cls-1" d="M126.28,38.25v15.9c0,1.22.19,2.22.57,3,.7,1.43,2,2.15,3.9,2.15,2.73,0,4.59-1.25,5.57-3.76.54-1.34.81-3.18.81-5.52v-11.76h4.02v23.95h-3.8l.04-3.53c-.51.91-1.15,1.68-1.91,2.3-1.51,1.25-3.33,1.88-5.48,1.88-3.35,0-5.63-1.14-6.85-3.42-.66-1.22-.99-2.85-.99-4.9v-16.28h4.11Z"/>
    <path class="cls-1" d="M150.12,54.68c.12,1.34.46,2.37,1.03,3.09,1.03,1.3,2.83,1.95,5.39,1.95,1.52,0,2.86-.32,4.02-.97,1.16-.65,1.73-1.65,1.73-3.01,0-1.03-.46-1.81-1.39-2.35-.59-.33-1.76-.71-3.5-1.14l-3.25-.8c-2.08-.51-3.61-1.07-4.59-1.7-1.76-1.09-2.64-2.59-2.64-4.52,0-2.27.83-4.1,2.48-5.5,1.65-1.4,3.88-2.1,6.67-2.1,3.66,0,6.29,1.06,7.91,3.17,1.01,1.34,1.5,2.79,1.47,4.34h-3.8c-.08-.9-.4-1.73-.98-2.47-.95-1.05-2.59-1.58-4.92-1.58-1.56,0-2.73.29-3.54.87s-1.2,1.34-1.2,2.29c0,1.04.53,1.87,1.58,2.5.61.37,1.5.7,2.69.98l2.71.65c2.95.7,4.92,1.38,5.92,2.03,1.56,1.03,2.35,2.65,2.35,4.85s-.82,3.97-2.46,5.52c-1.64,1.55-4.13,2.33-7.48,2.33-3.61,0-6.16-.81-7.66-2.43s-2.31-3.62-2.41-6h3.87Z"/>
    <path class="cls-1" d="M171.43,31.56h4.07v6.69h3.82v3.29h-3.82v15.63c0,.83.28,1.39.85,1.68.31.16.83.25,1.56.25.19,0,.4,0,.63-.01s.48-.04.78-.07v3.2c-.46.13-.94.23-1.44.29s-1.04.09-1.62.09c-1.88,0-3.15-.48-3.82-1.44s-1.01-2.21-1.01-3.75v-15.85h-3.24v-3.29h3.24v-6.69Z"/>
    <path class="cls-1" d="M200.69,40.64c2.12,2.06,3.18,5.08,3.18,9.07s-.93,7.05-2.8,9.56c-1.87,2.52-4.76,3.78-8.68,3.78-3.27,0-5.87-1.11-7.79-3.34s-2.89-5.22-2.89-8.97c0-4.02,1.01-7.22,3.04-9.61s4.75-3.57,8.17-3.57c3.06,0,5.65,1.03,7.77,3.08ZM198.2,56.55c.98-2.02,1.47-4.26,1.47-6.73,0-2.23-.35-4.05-1.06-5.45-1.12-2.2-3.05-3.31-5.79-3.31-2.43,0-4.2.94-5.31,2.81s-1.66,4.14-1.66,6.79.55,4.67,1.66,6.36,2.86,2.55,5.26,2.55c2.64,0,4.45-1.01,5.43-3.03Z"/>
    <path class="cls-1" d="M208.81,38.25h3.98v3.4c.95-1.18,1.82-2.03,2.59-2.57,1.33-.91,2.83-1.36,4.52-1.36,1.91,0,3.44.47,4.61,1.41.66.54,1.25,1.33,1.79,2.37.89-1.28,1.95-2.23,3.15-2.85,1.21-.62,2.56-.93,4.07-.93,3.22,0,5.41,1.16,6.57,3.49.63,1.25.94,2.94.94,5.05v15.94h-4.18v-16.64c0-1.59-.4-2.69-1.2-3.29-.8-.6-1.77-.89-2.92-.89-1.58,0-2.94.53-4.08,1.59-1.14,1.06-1.71,2.83-1.71,5.3v13.93h-4.09v-15.63c0-1.62-.19-2.81-.58-3.56-.61-1.12-1.75-1.68-3.42-1.68-1.52,0-2.9.59-4.15,1.77s-1.87,3.31-1.87,6.4v12.7h-4.02v-23.95Z"/>
    <path class="cls-1" d="M270.73,31.74c2.27,2.19,3.53,4.68,3.78,7.47h-4.34c-.48-2.12-1.45-3.79-2.89-5.03-1.44-1.24-3.47-1.86-6.07-1.86-3.18,0-5.74,1.14-7.7,3.41-1.95,2.27-2.93,5.76-2.93,10.46,0,3.85.88,6.97,2.65,9.37,1.76,2.39,4.4,3.59,7.9,3.59,3.22,0,5.67-1.26,7.36-3.78.89-1.33,1.56-3.07,2-5.23h4.34c-.38,3.46-1.65,6.36-3.8,8.7-2.58,2.82-6.06,4.23-10.43,4.23-3.77,0-6.94-1.16-9.5-3.47-3.37-3.06-5.06-7.78-5.06-14.16,0-4.85,1.27-8.82,3.8-11.93,2.74-3.37,6.52-5.06,11.34-5.06,4.11,0,7.3,1.1,9.57,3.29Z"/>
    <path class="cls-1" d="M297.38,40.64c2.12,2.06,3.18,5.08,3.18,9.07s-.93,7.05-2.8,9.56c-1.87,2.52-4.76,3.78-8.68,3.78-3.27,0-5.87-1.11-7.79-3.34s-2.89-5.22-2.89-8.97c0-4.02,1.01-7.22,3.04-9.61s4.75-3.57,8.17-3.57c3.06,0,5.65,1.03,7.77,3.08ZM294.88,56.55c.98-2.02,1.47-4.26,1.47-6.73,0-2.23-.35-4.05-1.06-5.45-1.12-2.2-3.05-3.31-5.79-3.31-2.43,0-4.2.94-5.31,2.81s-1.66,4.14-1.66,6.79.55,4.67,1.66,6.36,2.86,2.55,5.26,2.55c2.64,0,4.45-1.01,5.43-3.03Z"/>
    <path class="cls-1" d="M305.49,38.25h3.98v3.4c.96-1.18,1.82-2.03,2.59-2.57,1.33-.91,2.83-1.36,4.52-1.36,1.91,0,3.44.47,4.61,1.41.66.54,1.25,1.33,1.79,2.37.89-1.28,1.95-2.23,3.15-2.85,1.21-.62,2.56-.93,4.07-.93,3.22,0,5.41,1.16,6.57,3.49.62,1.25.94,2.94.94,5.05v15.94h-4.18v-16.64c0-1.59-.4-2.69-1.2-3.29-.8-.6-1.77-.89-2.92-.89-1.58,0-2.94.53-4.08,1.59-1.14,1.06-1.71,2.83-1.71,5.3v13.93h-4.09v-15.63c0-1.62-.19-2.81-.58-3.56-.61-1.12-1.75-1.68-3.42-1.68-1.52,0-2.9.59-4.15,1.77-1.24,1.18-1.87,3.31-1.87,6.4v12.7h-4.03v-23.95Z"/>
    <path class="cls-1" d="M343.31,38.36h3.94v3.17c.81-1.09,1.69-1.93,2.65-2.53,1.36-.89,2.96-1.34,4.8-1.34,2.72,0,5.03,1.04,6.93,3.12,1.9,2.08,2.85,5.05,2.85,8.91,0,5.22-1.37,8.94-4.11,11.18-1.74,1.42-3.76,2.12-6.06,2.12-1.81,0-3.33-.4-4.56-1.19-.72-.45-1.52-1.21-2.4-2.3v12.23h-4.02v-33.38ZM358.45,57.13c1.25-1.57,1.87-3.92,1.87-7.05,0-1.91-.28-3.55-.83-4.92-1.05-2.64-2.96-3.96-5.74-3.96s-4.71,1.39-5.74,4.18c-.55,1.49-.83,3.38-.83,5.68,0,1.85.28,3.42.83,4.72,1.05,2.47,2.96,3.71,5.74,3.71,1.88,0,3.45-.79,4.7-2.36Z"/>
    <path class="cls-1" d="M381.94,47.7c.92-.12,1.54-.51,1.86-1.16.18-.36.27-.88.27-1.55,0-1.38-.49-2.38-1.46-3-.97-.62-2.37-.93-4.18-.93-2.1,0-3.59.57-4.46,1.71-.49.63-.81,1.57-.96,2.81h-3.76c.07-2.96,1.03-5.02,2.87-6.18s3.97-1.74,6.4-1.74c2.81,0,5.1.54,6.86,1.61,1.74,1.07,2.61,2.74,2.61,5.01v13.8c0,.42.09.75.26,1.01.17.25.53.38,1.08.38.18,0,.38-.01.6-.03.22-.02.46-.06.72-.1v2.97c-.63.18-1.1.29-1.43.34-.33.04-.78.07-1.34.07-1.39,0-2.39-.49-3.02-1.48-.33-.52-.56-1.26-.69-2.21-.82,1.07-2,2-3.53,2.79-1.54.79-3.23,1.19-5.08,1.19-2.22,0-4.04-.67-5.45-2.02-1.41-1.35-2.11-3.03-2.11-5.06,0-2.22.69-3.94,2.08-5.16,1.39-1.22,3.21-1.97,5.46-2.26l6.42-.8ZM373.47,58.57c.85.67,1.86,1,3.02,1,1.42,0,2.79-.33,4.11-.98,2.24-1.09,3.35-2.86,3.35-5.34v-3.24c-.49.31-1.12.58-1.9.79s-1.53.36-2.28.45l-2.43.31c-1.46.19-2.55.5-3.29.92-1.25.7-1.87,1.81-1.87,3.35,0,1.16.42,2.07,1.27,2.74Z"/>
    <path class="cls-1" d="M394.58,38.25h3.82v3.4c1.13-1.4,2.33-2.41,3.6-3.02,1.27-.61,2.68-.92,4.23-.92,3.4,0,5.69,1.19,6.89,3.56.66,1.3.98,3.15.98,5.57v15.36h-4.09v-15.09c0-1.46-.22-2.64-.65-3.53-.72-1.49-2.01-2.24-3.89-2.24-.95,0-1.74.1-2.35.29-1.1.33-2.07.98-2.91,1.97-.67.79-1.11,1.61-1.31,2.45s-.3,2.05-.3,3.61v12.54h-4.03v-23.95Z"/>
    <path class="cls-1" d="M435.02,38.25h4.45c-.57,1.54-1.83,5.04-3.78,10.51-1.46,4.12-2.68,7.47-3.67,10.07-2.32,6.11-3.96,9.83-4.91,11.17-.95,1.34-2.59,2.01-4.92,2.01-.57,0-1-.02-1.31-.07-.31-.04-.68-.13-1.13-.25v-3.67c.7.19,1.21.31,1.52.36.31.04.59.07.83.07.74,0,1.29-.12,1.64-.37.35-.25.64-.55.88-.9.07-.12.34-.73.8-1.83.46-1.1.8-1.92,1-2.46l-8.85-24.65h4.56l6.42,19.51,6.46-19.51Z"/>
  </g>
</svg>