<svg width="48" height="48" viewBox="0 0 48 48" fill="none" xmlns="http://www.w3.org/2000/svg">
<rect width="48" height="48" rx="2.25" fill="#805CFF"/>
<path d="M34.9135 21.5256C34.708 21.7754 34.949 21.7585 35.1097 21.7978C35.6575 21.9311 36.5622 21.9971 35.8801 22.7619C35.1229 23.6109 32.1888 24.8557 31.0734 25.1897C30.2504 25.4367 29.1613 25.497 28.4489 25.7496C28.0499 25.8914 27.4362 26.4864 26.9924 26.7137C26.5065 26.9621 24.8248 27.7747 24.4021 27.4645C23.8003 27.0211 25.1303 26.332 25.1962 25.8535C21.8552 25.4928 18.8619 24.1119 16.0636 22.2202C15.5684 22.1852 12.4303 24.1372 11.6322 24.4796C11.0633 24.7252 9.93477 25.1813 10.1191 24.0011C10.2666 23.0552 11.9838 21.0274 11.9351 20.0661C11.8798 18.9799 9.84917 16.8047 10.0915 15.748C10.235 15.1235 12.0234 16.0582 12.3763 16.2336C13.3376 16.7107 14.8165 17.839 15.7409 18.1085C15.9701 18.1758 16.0399 18.1758 16.2677 18.1085C17.2172 17.832 18.9936 16.5971 20.0261 16.0933C20.8175 15.7073 21.6682 15.4561 22.4373 15.0225C22.4755 14.8302 20.836 12.3084 20.7517 11.778C20.5673 10.6258 21.8908 11.1942 22.436 11.3963C23.8003 11.9015 25.4437 12.8979 26.6276 13.7806C26.8699 13.9616 27.0899 14.3489 27.3019 14.4598C27.8062 14.7222 29.1877 14.7404 29.8975 14.9102C32.0598 15.4281 35.834 17.411 37.1403 19.356C38.2031 20.939 35.3481 20.9895 34.9108 21.5242L34.9135 21.5256ZM33.2647 19.0501C33.2647 18.4579 32.8144 17.9793 32.2573 17.9793C31.7003 17.9793 31.2499 18.4593 31.2499 19.0501C31.2499 19.6409 31.7003 20.1208 32.2573 20.1208C32.8144 20.1208 33.2647 19.6409 33.2647 19.0501Z" fill="#000028"/>
<path d="M9.16618 36.9904C9.04239 36.8585 8.9647 36.4628 9.01605 36.2804C9.17276 35.7302 10.6411 35.945 11.1336 35.8706C12.2319 35.705 13.1721 34.8854 14.4443 34.7844C16.4472 34.6258 17.5574 35.8229 19.3009 35.9127C21.246 36.0123 22.5036 34.6006 24.687 34.7928C25.9249 34.9023 27.01 35.799 28.2281 35.9127C30.3536 36.1106 31.6454 34.5711 33.8776 34.7914C35.0522 34.9079 36.0623 35.6853 37.1948 35.872C37.6702 35.9492 38.6605 35.7401 38.8686 36.1863C39.394 37.3118 37.8322 37.2459 37.1592 37.1659C36.1545 37.0452 35.126 36.2397 34.241 36.0811C31.7982 35.6432 30.4918 37.4114 28.0964 37.1715C26.981 37.0606 25.9367 36.2509 24.9201 36.0811C22.5642 35.6867 21.2447 37.3862 18.9085 37.1701C17.2901 37.0199 16.3327 35.8888 14.4443 36.0432C13.2077 36.1442 12.2833 37.0017 11.152 37.1504C10.7662 37.2009 9.4019 37.2459 9.16355 36.9933L9.16618 36.9904Z" fill="white"/>
<path d="M9.16754 33.2183C8.92128 32.96 9.00819 32.2836 9.35322 32.1573C9.72721 32.0212 10.6135 32.177 11.135 32.0984C12.2188 31.9328 13.1011 31.1076 14.4456 31.0122C16.4842 30.8691 17.4876 32.0296 19.1706 32.1405C21.084 32.2654 22.102 31.0894 23.8956 31.0122C26.0211 30.9196 27.3248 32.4071 29.5477 32.1363C30.6078 32.0072 31.6494 31.1273 32.9624 31.0206C34.6888 30.8817 35.5685 31.7462 37.0895 32.0731C37.6097 32.1854 38.8712 31.9777 38.941 32.7706C39.0437 33.9382 36.5417 33.2112 35.9438 33.0134C35.3947 32.8323 34.8152 32.4043 34.2424 32.3089C31.8562 31.9117 30.5986 33.5958 28.2308 33.3979C26.4859 33.2519 25.601 32.0787 23.6349 32.2696C22.4352 32.3861 21.3803 33.2758 20.0937 33.3909C17.8524 33.5915 16.5658 32.0998 14.4456 32.271C13.2077 32.3706 12.1872 33.2337 11.023 33.3782C10.6451 33.426 9.40721 33.4737 9.16622 33.2197L9.16754 33.2183Z" fill="white"/>
</svg>
