<svg width="48" height="48" viewBox="0 0 48 48" fill="none" xmlns="http://www.w3.org/2000/svg">
<rect width="48" height="48" rx="2.25" fill="#805CFF"/>
<path d="M11.0183 33.0258C10.7492 33.0258 10.495 32.9208 10.305 32.7308C10.1142 32.54 10.0083 32.2867 10.0083 32.0167C10.0083 31.7467 10.1133 31.4933 10.305 31.3025L11.8667 29.7408C12.0575 29.55 12.3108 29.445 12.5808 29.445C12.8508 29.445 13.1042 29.55 13.2942 29.74C13.485 29.9308 13.59 30.185 13.59 30.4542C13.59 30.7233 13.485 30.9775 13.2942 31.1683L11.7325 32.73C11.5417 32.9208 11.2883 33.0258 11.0183 33.0258Z" fill="white"/>
<path d="M15.9767 37.9992C15.7075 37.9992 15.4533 37.8942 15.2625 37.7042C14.8683 37.31 14.8683 36.6692 15.2625 36.2758L16.8241 34.7142C17.015 34.5233 17.2683 34.4183 17.5375 34.4183C17.8066 34.4183 18.0608 34.5233 18.2508 34.7133C18.645 35.1075 18.645 35.7483 18.2508 36.1417L16.6891 37.7033C16.4983 37.8942 16.2458 37.9992 15.9767 37.9992Z" fill="white"/>
<path d="M11.01 38C10.74 38 10.4867 37.895 10.2958 37.7042C10.105 37.5133 10 37.26 10 36.99C10 36.72 10.105 36.4667 10.2958 36.2758L14.345 32.2267C14.5358 32.0358 14.7892 31.9308 15.0583 31.9308C15.3275 31.9308 15.5808 32.0358 15.7717 32.2258C16.165 32.6192 16.1658 33.26 15.7725 33.6542L11.7225 37.7042C11.5317 37.895 11.28 38 11.01 38Z" fill="white"/>
<path d="M37.7483 10.3433C37.5566 10.125 37.2799 10 36.9908 10C36.9474 10 36.9033 10.0025 36.8599 10.0083C31.4566 10.7108 26.6066 13.085 22.8333 16.8742L21.9791 17.73L18.1758 17.0958C18.1208 17.0867 18.065 17.0825 18.01 17.0825C17.7408 17.0825 17.4875 17.1875 17.2958 17.3783L11.5275 23.1475C11.2583 23.4167 11.1633 23.8092 11.28 24.1692C11.3958 24.5317 11.7008 24.7958 12.0758 24.8575L16.0833 25.5258L16.2858 25.7283L14.2017 26.8733C13.8833 27.0492 13.6825 27.3833 13.6792 27.7458C13.675 28.1092 13.8675 28.4475 14.1808 28.6308L17.4591 30.5375L19.3558 33.8283C19.5358 34.14 19.8708 34.3333 20.23 34.3333C20.5891 34.3333 20.9391 34.1317 21.1166 33.8075L22.2641 31.7058L22.475 31.9167L23.1433 35.925C23.2058 36.2983 23.4691 36.6033 23.8308 36.72C23.9308 36.7525 24.035 36.7683 24.1391 36.7683C24.4091 36.7683 24.6625 36.6633 24.8533 36.4725L30.6216 30.7042C30.8516 30.4742 30.9566 30.145 30.9033 29.8242L30.2691 26.0217L31.1249 25.1683C34.9149 21.395 37.2891 16.545 37.9916 11.1417C38.0291 10.8533 37.9399 10.5633 37.7483 10.3458V10.3433ZM16.2208 23.5008L14.3425 23.1875L18.3558 19.1742L20.2266 19.4858L16.2208 23.5008ZM20.2066 31.26L19.075 29.2967C18.9875 29.1442 18.86 29.0167 18.7075 28.9275L16.74 27.7833L17.7741 27.215L20.7766 30.2175L20.2066 31.26ZM21.4216 28.0067L19.9933 26.5783L24.7983 21.7733C24.9891 21.5825 25.2425 21.4775 25.5125 21.4775C25.7825 21.4775 26.0358 21.5825 26.2258 21.7725C26.62 22.1667 26.62 22.8075 26.2258 23.2008L21.4216 28.0067ZM24.8125 33.6567L24.4991 31.7783L28.5141 27.7725L28.8258 29.6433L24.8125 33.6567ZM29.6674 19.9892C28.7524 19.9892 28.0116 19.2475 28.0116 18.3333C28.0116 17.4192 28.7533 16.6775 29.6674 16.6775C30.5816 16.6775 31.3233 17.4192 31.3233 18.3333C31.3233 19.2475 30.5816 19.9892 29.6674 19.9892Z" fill="#000028"/>
</svg>
