<?xml version="1.0" encoding="UTF-8"?><svg id="Layout" xmlns="http://www.w3.org/2000/svg" viewBox="0 0 512 512"><defs><style>.cls-1{fill:#fff;}.cls-2{fill:#00ffb9;}.cls-3{fill:#000028;}.cls-4{fill:#0cc;}</style></defs><rect class="cls-3" x="0" y="0" width="512" height="512" rx="256" ry="256"/><path class="cls-4" d="M122.77,97.6c0-10.8,8.76-19.56,19.56-19.56h56.22v81.48h-75.78v-61.93Z"/><rect class="cls-2" x="122.77" y="175.82" width="175.19" height="81.48"/><path class="cls-4" d="M122.77,273.6h75.78v81.48h-56.22c-10.8,0-19.56-8.76-19.56-19.56v-61.93Z"/><path class="cls-4" d="M214.04,78.04h175.19v81.48h-175.19v-81.48Z"/><path class="cls-4" d="M214.04,273.6h175.19v81.48h-175.19v-81.48Z"/><polygon class="cls-1" points="122.77 433.96 122.77 391.01 147.9 391.01 147.9 397.07 130.29 397.07 130.29 409.14 147.02 409.14 147.02 415.2 130.29 415.2 130.29 427.9 148.81 427.9 148.81 433.96 122.77 433.96"/><polygon class="cls-1" points="157.92 433.96 157.92 391.01 165.44 391.01 165.44 427.9 183.96 427.9 183.96 433.96 157.92 433.96"/><polygon class="cls-1" points="190.14 433.96 190.14 391.01 215.27 391.01 215.27 397.07 197.66 397.07 197.66 409.14 214.39 409.14 214.39 415.2 197.66 415.2 197.66 427.9 216.18 427.9 216.18 433.96 190.14 433.96"/><path class="cls-1" d="M224.94,433.96v-42.95h10.94l9.58,27.25c.53,1.45,1.3,3.96,2.33,7.52.95-3.35,1.72-5.86,2.3-7.52l9.49-27.25h10.76v42.95h-7.34v-35.22c-.85,3.03-1.83,6.16-2.94,9.4l-8.91,25.82h-7.15l-8.88-25.28c-1.03-2.91-2.09-6.22-3.18-9.94v35.22h-7Z"/><polygon class="cls-1" points="281.01 433.96 281.01 391.01 306.14 391.01 306.14 397.07 288.53 397.07 288.53 409.14 305.26 409.14 305.26 415.2 288.53 415.2 288.53 427.9 307.04 427.9 307.04 433.96 281.01 433.96"/><path class="cls-1" d="M315.8,433.96v-42.95h8.4l13.79,22.82c1.11,1.84,2.79,4.97,5.03,9.4-.1-1.82-.15-4.28-.15-7.4v-24.82h7.21v42.95h-8.33l-13.46-22.19c-1.6-2.65-3.4-6-5.43-10.06.1,2.34.15,5.46.15,9.34v22.91h-7.21Z"/><polygon class="cls-1" points="369.04 433.96 369.04 397.07 356.55 397.07 356.55 391.01 389.23 391.01 389.23 397.07 376.56 397.07 376.56 433.96 369.04 433.96"/></svg>