<?xml version="1.0" encoding="UTF-8"?>
<svg id="Layout" xmlns="http://www.w3.org/2000/svg" version="1.1" viewBox="0 0 512 512">
  <!-- Generator: Adobe Illustrator 29.3.1, SVG Export Plug-In . SVG Version: 2.1.0 Build 151)  -->
  <defs>
    <style>
      .st0 {
        fill: #1dbadf;
      }

      .st1 {
        fill: #6cbe99;
      }

      .st2 {
        fill: #fff;
      }

      .st3 {
        fill: #0f1023;
      }
    </style>
  </defs>
  <rect class="st3" width="512" height="512"/>
  <path class="st0" d="M122.8,97.6c0-10.8,8.8-19.6,19.6-19.6h56.2v81.5h-75.8v-61.9h0Z"/>
  <rect class="st1" x="122.8" y="175.8" width="175.2" height="81.5"/>
  <path class="st0" d="M122.8,273.6h75.8v81.5h-56.2c-10.8,0-19.6-8.8-19.6-19.6v-61.9h0Z"/>
  <path class="st0" d="M214,78h175.2v81.5h-175.2v-81.5h0Z"/>
  <path class="st0" d="M214,273.6h175.2v81.5h-175.2v-81.5h0Z"/>
  <polygon class="st2" points="122.8 434 122.8 391 147.9 391 147.9 397.1 130.3 397.1 130.3 409.1 147 409.1 147 415.2 130.3 415.2 130.3 427.9 148.8 427.9 148.8 434 122.8 434"/>
  <polygon class="st2" points="157.9 434 157.9 391 165.4 391 165.4 427.9 184 427.9 184 434 157.9 434"/>
  <polygon class="st2" points="190.1 434 190.1 391 215.3 391 215.3 397.1 197.7 397.1 197.7 409.1 214.4 409.1 214.4 415.2 197.7 415.2 197.7 427.9 216.2 427.9 216.2 434 190.1 434"/>
  <path class="st2" d="M224.9,434v-43h10.9l9.6,27.2c.5,1.5,1.3,4,2.3,7.5.9-3.4,1.7-5.9,2.3-7.5l9.5-27.2h10.8v43h-7.3v-35.2c-.9,3-1.8,6.2-2.9,9.4l-8.9,25.8h-7.1l-8.9-25.3c-1-2.9-2.1-6.2-3.2-9.9v35.2h-7Z"/>
  <polygon class="st2" points="281 434 281 391 306.1 391 306.1 397.1 288.5 397.1 288.5 409.1 305.3 409.1 305.3 415.2 288.5 415.2 288.5 427.9 307 427.9 307 434 281 434"/>
  <path class="st2" d="M315.8,434v-43h8.4l13.8,22.8c1.1,1.8,2.8,5,5,9.4-.1-1.8-.1-4.3-.1-7.4v-24.8h7.2v43h-8.3l-13.5-22.2c-1.6-2.6-3.4-6-5.4-10.1.1,2.3.1,5.5.1,9.3v22.9h-7.2Z"/>
  <polygon class="st2" points="369 434 369 397.1 356.5 397.1 356.5 391 389.2 391 389.2 397.1 376.6 397.1 376.6 434 369 434"/>
</svg>